<svg width="56" height="58" viewBox="0 0 56 58" fill="none" xmlns="http://www.w3.org/2000/svg">
<g clip-path="url(#clip0_11971_4011)">
<path d="M12.336 32.1395L8.5189 24.2326L5.12073 58L10.3809 33.6744L14.198 41.5814L17.5962 7.81396L12.336 32.1395Z" fill="#F6FAFF"/>
<path d="M5.95844 38.7441H3.16542L3.67747 33.9999H6.37739L6.70324 31.2092H3.95677L4.42228 26.8836H7.21529L7.4946 24.0464H1.81546L0 41.4417H5.67914L5.95844 38.7441Z" fill="#F6FAFF"/>
<path d="M22.6235 26.8836L22.9493 24.0464H17.2702L15.4547 41.4417H21.1338L21.4132 38.7441H18.6201L19.0856 33.9999H21.8321L22.1114 31.2092H19.4115L19.8304 26.8836H22.6235Z" fill="#F6FAFF"/>
<path d="M30.4441 29.7208C30.5372 28.8836 30.5837 28.1394 30.5837 27.4882C30.5837 25.3022 29.8855 24.0464 27.3252 24.0464H23.927L22.1116 41.4417H24.9511L25.6028 35.5348H25.8821L26.3942 41.4417H29.2338L28.6286 34.7441C29.8855 33.6743 30.2113 31.8603 30.4441 29.7208ZM27.558 29.8138C27.2787 32.1394 27.1856 32.8371 26.3942 32.8371H25.8821L26.4873 26.7906H26.9994C27.5114 26.7906 27.6976 27.0696 27.6976 27.8138C27.6976 28.3255 27.6511 28.8371 27.558 29.8138Z" fill="#F6FAFF"/>
<path d="M35.6107 26.7908C36.4486 26.7908 37.1003 26.9304 37.5658 27.0699L38.4503 24.3722C37.752 24.1397 36.6348 23.9536 35.471 23.9536C34.0745 23.9536 33.1435 24.2327 32.4918 24.8373C31.3746 25.9536 31.1884 28.3257 30.7229 32.5118C30.4436 34.7908 30.304 36.5118 30.304 37.8141C30.304 40.6048 30.9091 41.535 33.7952 41.535C36.9141 41.535 37.2865 40.0001 37.7055 35.9536L38.2175 31.1164H34.4469L34.1676 33.9071H35.2383L34.959 36.0466C34.6331 38.7443 34.6331 39.0699 33.8883 39.0699C33.3297 39.0699 33.1435 38.7908 33.1435 37.8141C33.1435 36.8839 33.3297 35.3025 33.5625 32.7908C34.2142 27.2559 34.2142 26.7908 35.6107 26.7908Z" fill="#F6FAFF"/>
<path d="M42.2213 30.8371L41.942 24.0464H38.9628L40.1265 36.3255L39.6145 41.4417H42.5006L43.0126 36.6045L46.8763 24.0464H43.9437L42.2213 30.8371Z" fill="#F6FAFF"/>
<path d="M20.5751 22.8838H22.3906L23.8802 16.1397L24.2992 13.9071L24.0664 16.1397L23.3216 22.8838H25.7888L27.4646 7.95361H24.113L22.7164 14.1862L22.2975 16.2327V14.1397L22.344 7.95361H18.9924L17.3632 22.8838H19.6907L20.4355 16.0466L20.6682 13.9071L20.6217 16.0001L20.5751 22.8838Z" fill="#F6FAFF"/>
<path d="M30.2575 22.9768C31.4678 22.9768 32.2592 22.8372 32.8178 22.3256C33.7488 21.4419 33.9815 19.5814 34.4005 15.5814C34.6332 13.5349 34.7729 12.1395 34.7729 11.1163C34.7729 8.93024 34.3074 7.81396 31.7006 7.81396C30.4903 7.81396 29.6523 8.04652 29.1403 8.65117C28.1627 9.62792 27.9765 11.6279 27.5576 15.2093C27.3248 17.1628 27.1852 18.6512 27.1852 19.7209C27.1852 21.9535 27.6507 22.9768 30.2575 22.9768ZM30.211 15.4419C30.723 10.5582 30.723 10.3256 31.5609 10.3256C32.0264 10.3256 32.2126 10.4651 32.2126 11.2093C32.2126 11.907 32.073 13.2093 31.7937 15.4884C31.2351 20.4186 31.2816 20.6512 30.4437 20.6512C30.0247 20.6512 29.8385 20.5116 29.8385 19.7675C29.792 19.0233 29.9316 17.7675 30.211 15.4419Z" fill="#F6FAFF"/>
<path d="M37.1004 22.8838L37.659 17.8141H37.8917L38.3572 22.8838H40.9175L40.3589 17.1164C41.5227 16.2327 41.802 14.6513 42.0347 12.8373C42.1278 12.0931 42.1744 11.4885 42.1744 10.9304C42.1744 9.02338 41.5692 7.95361 39.2417 7.95361H36.2159L34.5867 22.8838H37.1004ZM38.4503 10.3257H38.9158C39.3813 10.3257 39.5676 10.5583 39.5676 11.2094C39.5676 11.628 39.521 12.0931 39.4279 12.8838C39.1951 14.8838 39.102 15.4885 38.4038 15.4885H37.9383L38.4503 10.3257Z" fill="#F6FAFF"/>
<path d="M48.2724 10.3722L48.5517 7.95361H43.4777L41.8019 22.8838H46.9224L47.1552 20.5583H44.6414L45.107 16.5118H47.5741L47.8069 14.0931H45.3863L45.7587 10.3722H48.2724Z" fill="#F6FAFF"/>
<path d="M55.9996 0H51.2981H6.19083V18.6977H4.37537L8.75109 23.1628L12.7079 18.6977H10.8924V4.93023H51.2981V29.8605V44.2326H9.1235V49.1628H55.9996V30.8372V0Z" fill="#C1FCD1"/>
</g>
<defs>
<clipPath id="clip0_11971_4011">
<rect width="56" height="58" fill="white"/>
</clipPath>
</defs>
</svg>
