<svg width="19" height="19" viewBox="0 0 19 19" fill="none" xmlns="http://www.w3.org/2000/svg">
<path d="M12.2628 0.79049C11.4336 0.554178 10.5756 0.434577 9.71349 0.435121C8.90608 0.437507 8.10245 0.545557 7.32308 0.75651C6.94377 0.864644 6.72391 1.25981 6.83204 1.63916C6.93762 2.00955 7.31789 2.2295 7.69159 2.13635C11.9046 0.993451 16.2464 3.48229 17.3893 7.69529C18.5322 11.9083 16.0433 16.2501 11.8303 17.393C7.61735 18.5359 3.27555 16.047 2.13265 11.834C1.75297 10.4344 1.76565 8.9572 2.16939 7.56426C2.27167 7.18332 2.04573 6.79159 1.6648 6.68931C1.29319 6.58955 0.909364 6.80209 0.796711 7.17002C-0.607858 12.0979 2.24836 17.2315 7.17623 18.636C12.1041 20.0406 17.2377 17.1844 18.6422 12.2565C20.0468 7.32858 17.1907 2.1951 12.2628 0.79049Z" fill="#383E45"/>
</svg>
