<svg width="20" height="20" viewBox="0 0 20 20" fill="none" xmlns="http://www.w3.org/2000/svg">
<path fill-rule="evenodd" clip-rule="evenodd" d="M19.1926 3.3075C19.2508 3.36556 19.2969 3.43453 19.3284 3.51046C19.36 3.58639 19.3762 3.66779 19.3762 3.75C19.3762 3.83221 19.36 3.91361 19.3284 3.98955C19.2969 4.06548 19.2508 4.13445 19.1926 4.1925L10.4426 12.9425C10.3845 13.0007 10.3155 13.0469 10.2396 13.0784C10.1637 13.1099 10.0823 13.1261 10.0001 13.1261C9.91785 13.1261 9.83645 13.1099 9.76051 13.0784C9.68458 13.0469 9.61561 13.0007 9.55756 12.9425L5.80756 9.1925C5.74945 9.13439 5.70335 9.06541 5.6719 8.98948C5.64045 8.91356 5.62427 8.83218 5.62427 8.75C5.62427 8.66782 5.64045 8.58645 5.6719 8.51052C5.70335 8.4346 5.74945 8.36561 5.80756 8.3075C5.86567 8.24939 5.93465 8.2033 6.01058 8.17185C6.0865 8.1404 6.16788 8.12421 6.25006 8.12421C6.33224 8.12421 6.41361 8.1404 6.48954 8.17185C6.56546 8.2033 6.63445 8.24939 6.69256 8.3075L10.0001 11.6163L18.3076 3.3075C18.3656 3.2493 18.4346 3.20312 18.5105 3.17161C18.5864 3.1401 18.6678 3.12389 18.7501 3.12389C18.8323 3.12389 18.9137 3.1401 18.9896 3.17161C19.0655 3.20312 19.1345 3.2493 19.1926 3.3075Z" fill="#383E45"/>
<path fill-rule="evenodd" clip-rule="evenodd" d="M10 3.125C8.64026 3.125 7.31105 3.52821 6.18047 4.28365C5.04988 5.03908 4.16869 6.11281 3.64834 7.36905C3.12799 8.62529 2.99184 10.0076 3.25711 11.3412C3.52239 12.6749 4.17717 13.8999 5.13865 14.8614C6.10014 15.8228 7.32515 16.4776 8.65876 16.7429C9.99238 17.0082 11.3747 16.872 12.631 16.3517C13.8872 15.8313 14.9609 14.9501 15.7164 13.8195C16.4718 12.689 16.875 11.3597 16.875 10C16.875 9.83424 16.9409 9.67527 17.0581 9.55806C17.1753 9.44085 17.3342 9.375 17.5 9.375C17.6658 9.375 17.8247 9.44085 17.942 9.55806C18.0592 9.67527 18.125 9.83424 18.125 10C18.1248 11.7885 17.5344 13.527 16.4454 14.9459C15.3565 16.3647 13.8298 17.3846 12.1022 17.8473C10.3745 18.31 8.54245 18.1898 6.89011 17.5052C5.23776 16.8206 3.85747 15.61 2.96329 14.061C2.06912 12.512 1.71104 10.7113 1.94457 8.93804C2.17811 7.16481 2.99022 5.51818 4.25495 4.25353C5.51969 2.98888 7.16637 2.17688 8.93961 1.94345C10.7129 1.71003 12.5136 2.06823 14.0625 2.9625C14.1372 3.00157 14.2032 3.05535 14.2566 3.1206C14.31 3.18584 14.3496 3.26121 14.3731 3.34217C14.3965 3.42312 14.4034 3.50799 14.3932 3.59167C14.3831 3.67535 14.3561 3.7561 14.3139 3.82908C14.2717 3.90206 14.2152 3.96575 14.1478 4.01632C14.0803 4.0669 14.0034 4.1033 13.9215 4.12336C13.8396 4.14341 13.7545 4.1467 13.6714 4.13302C13.5882 4.11934 13.5086 4.08897 13.4375 4.04375C12.3928 3.43961 11.2068 3.12264 10 3.125Z" fill="#383E45"/>
</svg>
