<svg width="20" height="20" viewBox="0 0 20 20" fill="none" xmlns="http://www.w3.org/2000/svg">
<path fill-rule="evenodd" clip-rule="evenodd" d="M19.4831 4.51387L15.445 0.514844C15.113 0.182852 14.6716 0 14.2021 0H1.75781C0.788555 0 0 0.788555 0 1.75781V18.2422C0 19.2114 0.788555 20 1.75781 20H18.2422C19.2114 20 20 19.2114 20 18.2422V5.75883C20 5.2893 19.8171 4.84789 19.4831 4.51387ZM12.9297 1.17188V5.27344C12.9297 5.59652 12.6668 5.85938 12.3438 5.85938H5.3125C4.98941 5.85938 4.72656 5.59652 4.72656 5.27344V1.17188H12.9297ZM15.2734 18.8281H4.72656V11.2109C4.72656 10.8879 4.98941 10.625 5.3125 10.625H14.6875C15.0106 10.625 15.2734 10.8879 15.2734 11.2109V11.7969H15.2686V12.9688H15.2734V18.8281ZM18.8281 18.2422C18.8281 18.5653 18.5653 18.8281 18.2422 18.8281H16.4453V11.2109C16.4453 10.2417 15.6568 9.45312 14.6875 9.45312H5.3125C4.34324 9.45312 3.55469 10.2417 3.55469 11.2109V18.8281H1.75781C1.43473 18.8281 1.17188 18.5653 1.17188 18.2422V1.75781C1.17188 1.43473 1.43473 1.17188 1.75781 1.17188H3.55469V5.27344C3.55469 6.2427 4.34324 7.03125 5.3125 7.03125H12.3438C13.313 7.03125 14.1016 6.2427 14.1016 5.27344V1.17188H14.2021C14.3586 1.17188 14.5057 1.23281 14.6184 1.34551L18.6565 5.34453C18.7672 5.4552 18.8281 5.60234 18.8281 5.75883V18.2422Z" fill="#383E45"/>
</svg>
