<svg width="20" height="20" viewBox="0 0 20 20" fill="none" xmlns="http://www.w3.org/2000/svg">
<path fill-rule="evenodd" clip-rule="evenodd" d="M19 20C19.5523 20 20 19.5523 20 19V1C20 0.447715 19.5523 0 19 0H1C0.447715 0 0 0.447715 0 1V19C0 19.5523 0.447715 20 1 20H19ZM15.3708 6.24973C15.6137 6.00713 16.0072 6.00725 16.25 6.24999C16.4927 6.49274 16.4928 6.88628 16.2502 7.12915L7.85397 15.5343C7.65857 15.7299 7.34153 15.7298 7.14626 15.5341L3.74956 12.1295C3.50702 11.8864 3.50724 11.4928 3.75007 11.2499C3.99284 11.0072 4.38636 11.0069 4.62949 11.2493L7.5 14.1113L15.3708 6.24973Z" fill="#383E45"/>
</svg>
