<svg width="16" height="13" viewBox="0 0 16 13" fill="none" xmlns="http://www.w3.org/2000/svg">
<path fill-rule="evenodd" clip-rule="evenodd" d="M0.5 4.875C0.5 5.04076 0.565848 5.19973 0.683059 5.31694C0.800269 5.43415 0.95924 5.5 1.125 5.5H9.875C10.0408 5.5 10.1997 5.43415 10.3169 5.31694C10.4342 5.19973 10.5 5.04076 10.5 4.875C10.5 4.70924 10.4342 4.55027 10.3169 4.43306C10.1997 4.31585 10.0408 4.25 9.875 4.25H1.125C0.95924 4.25 0.800269 4.31585 0.683059 4.43306C0.565848 4.55027 0.5 4.70924 0.5 4.875ZM0.5 8.625C0.5 8.79076 0.565848 8.94973 0.683059 9.06694C0.800269 9.18415 0.95924 9.25 1.125 9.25H12.375C12.5408 9.25 12.6997 9.18415 12.8169 9.06694C12.9342 8.94973 13 8.79076 13 8.625C13 8.45924 12.9342 8.30027 12.8169 8.18306C12.6997 8.06585 12.5408 8 12.375 8H1.125C0.95924 8 0.800269 8.06585 0.683059 8.18306C0.565848 8.30027 0.5 8.45924 0.5 8.625ZM0.5 12.375C0.5 12.5408 0.565848 12.6997 0.683059 12.8169C0.800269 12.9342 0.95924 13 1.125 13H14.875C15.0408 13 15.1997 12.9342 15.3169 12.8169C15.4342 12.6997 15.5 12.5408 15.5 12.375C15.5 12.2092 15.4342 12.0503 15.3169 11.9331C15.1997 11.8158 15.0408 11.75 14.875 11.75H1.125C0.95924 11.75 0.800269 11.8158 0.683059 11.9331C0.565848 12.0503 0.5 12.2092 0.5 12.375ZM0.5 1.125C0.5 1.29076 0.565848 1.44973 0.683059 1.56694C0.800269 1.68415 0.95924 1.75 1.125 1.75H7.375C7.54076 1.75 7.69973 1.68415 7.81694 1.56694C7.93415 1.44973 8 1.29076 8 1.125C8 0.959239 7.93415 0.800268 7.81694 0.683057C7.69973 0.565847 7.54076 0.499999 7.375 0.499999H1.125C0.95924 0.499999 0.800269 0.565847 0.683059 0.683057C0.565848 0.800268 0.5 0.959239 0.5 1.125Z" fill="#383E45"/>
</svg>
