<svg width="20" height="20" viewBox="0 0 20 20" fill="none" xmlns="http://www.w3.org/2000/svg">
<path d="M12.875 11.125C14.75 10.125 15.875 8.24999 15.875 5.99999C15.875 2.74999 13.25 0.124993 10 0.124993C6.75 -7.27922e-06 4.125 2.62499 4.125 5.87499C4.125 8.12499 5.375 9.99999 7.125 11C3.375 12.25 0.625 15.875 0.625 20H1.875C1.875 15.5 5.5 11.875 10 11.875C14.5 11.875 18.125 15.5 18.125 20H19.375C19.375 15.875 16.625 12.25 12.875 11.125ZM5.375 5.87499C5.375 3.37499 7.375 1.24999 10 1.24999C12.625 1.24999 14.625 3.37499 14.625 5.87499C14.625 8.37499 12.625 10.625 10 10.625C7.375 10.625 5.375 8.49999 5.375 5.87499Z" fill="#383E45"/>
</svg>
