<svg width="19" height="18" viewBox="0 0 19 18" fill="none" xmlns="http://www.w3.org/2000/svg">
<path d="M18.75 1.5V17.75H0V1.5H2.5V0.25H6.25C6.82292 0.25 7.37305 0.337891 7.90039 0.513672C8.42773 0.689453 8.91927 0.953125 9.375 1.30469C9.82422 0.953125 10.3125 0.689453 10.8398 0.513672C11.3672 0.337891 11.9206 0.25 12.5 0.25H16.25V1.5H18.75ZM12.5 1.5C12.0443 1.5 11.6016 1.57487 11.1719 1.72461C10.7422 1.87435 10.3516 2.09896 10 2.39844V14.6445C10.3841 14.4297 10.7878 14.2702 11.2109 14.166C11.6341 14.0618 12.0638 14.0065 12.5 14H15V1.5H12.5ZM3.75 14H6.25C6.6862 14 7.11589 14.0521 7.53906 14.1562C7.96224 14.2604 8.36589 14.4232 8.75 14.6445V2.39844C8.39844 2.10547 8.00781 1.88411 7.57812 1.73438C7.14844 1.58464 6.70573 1.50651 6.25 1.5H3.75V14ZM1.25 16.5H9.12109C8.91276 16.2982 8.70117 16.1224 8.48633 15.9727C8.27148 15.8229 8.05013 15.6927 7.82227 15.582C7.5944 15.4714 7.35026 15.39 7.08984 15.3379C6.82943 15.2858 6.54948 15.2565 6.25 15.25H2.5V2.75H1.25V16.5ZM17.5 2.75H16.25V15.25H12.5C12.2005 15.25 11.9238 15.276 11.6699 15.3281C11.416 15.3802 11.1719 15.4616 10.9375 15.5723C10.7031 15.6829 10.4785 15.8132 10.2637 15.9629C10.0488 16.1126 9.83724 16.2917 9.62891 16.5H17.5V2.75Z" fill="#383E45"/>
</svg>
