<svg width="19" height="19" viewBox="0 0 19 19" fill="none" xmlns="http://www.w3.org/2000/svg">
<path d="M9.00005 6.25C8.47921 6.25 7.99419 6.34766 7.54497 6.54297C7.09575 6.73828 6.69861 7.00521 6.35356 7.34375C6.00851 7.68229 5.73833 8.08268 5.54301 8.54492C5.3477 9.00716 5.25005 9.49219 5.25005 10C5.25005 10.5208 5.3477 11.0059 5.54301 11.4551C5.73833 11.9043 6.00525 12.3014 6.3438 12.6465C6.68234 12.9915 7.07947 13.2617 7.5352 13.457C7.99093 13.6523 8.47921 13.75 9.00005 13.75C9.51437 13.75 9.9994 13.6523 10.4551 13.457C10.9109 13.2617 11.308 12.9948 11.6465 12.6562C11.9851 12.3177 12.2553 11.9206 12.4571 11.4648C12.6589 11.0091 12.7566 10.5208 12.75 10C12.75 9.58333 12.6784 9.16667 12.5352 8.75H13.8438C13.8959 8.95833 13.9349 9.16667 13.961 9.375C13.987 9.58333 14 9.79167 14 10C14 10.6901 13.8698 11.3379 13.6094 11.9434C13.349 12.5488 12.9909 13.0762 12.5352 13.5254C12.0795 13.9746 11.5489 14.3327 10.9434 14.5996C10.3379 14.8665 9.69015 15 9.00005 15C8.30994 15 7.66216 14.8698 7.05669 14.6094C6.45122 14.349 5.92387 13.9909 5.47466 13.5352C5.02544 13.0794 4.66736 12.5488 4.40044 11.9434C4.13351 11.3379 4.0033 10.6901 4.00981 10C4.00981 9.3099 4.14002 8.66211 4.40044 8.05664C4.66085 7.45117 5.01567 6.92383 5.46489 6.47461C5.91411 6.02539 6.44471 5.66732 7.05669 5.40039C7.66867 5.13346 8.31645 5 9.00005 5C9.20838 5 9.41671 5.01302 9.62505 5.03906C9.83338 5.0651 10.0417 5.10417 10.25 5.15625V6.46484C9.83338 6.32161 9.41671 6.25 9.00005 6.25ZM17.4571 7.76367C17.6524 8.49935 17.7501 9.24479 17.7501 10C17.7501 10.8008 17.6459 11.5723 17.4376 12.3145C17.2292 13.0566 16.9362 13.7533 16.5586 14.4043C16.181 15.0553 15.7221 15.6478 15.1817 16.1816C14.6413 16.7155 14.0521 17.1712 13.4141 17.5488C12.7761 17.9264 12.0795 18.2227 11.3243 18.4375C10.5691 18.6523 9.79432 18.7565 9.00005 18.75C8.19927 18.75 7.42778 18.6458 6.68559 18.4375C5.94341 18.2292 5.24679 17.9362 4.59575 17.5586C3.94471 17.181 3.35226 16.722 2.8184 16.1816C2.28455 15.6413 1.82882 15.0521 1.45122 14.4141C1.07361 13.776 0.777387 13.0794 0.562543 12.3242C0.347699 11.569 0.243533 10.7943 0.250043 10C0.250043 9.19922 0.35421 8.42773 0.562543 7.68555C0.770877 6.94336 1.06385 6.24674 1.44145 5.5957C1.81905 4.94466 2.27804 4.35221 2.8184 3.81836C3.35877 3.28451 3.94796 2.82878 4.58598 2.45117C5.224 2.07357 5.92062 1.77734 6.67583 1.5625C7.43104 1.34766 8.20578 1.24349 9.00005 1.25C9.75526 1.25 10.5007 1.34766 11.2364 1.54297L10.25 2.5293V2.60742C10.0417 2.57487 9.83338 2.54883 9.62505 2.5293C9.41671 2.50977 9.20838 2.5 9.00005 2.5C8.30994 2.5 7.64588 2.58789 7.00786 2.76367C6.36984 2.93945 5.77413 3.19336 5.22075 3.52539C4.66736 3.85742 4.15955 4.24805 3.69731 4.69727C3.23507 5.14648 2.84445 5.65104 2.52543 6.21094C2.20642 6.77083 1.95577 7.36979 1.77348 8.00781C1.59119 8.64583 1.50004 9.3099 1.50004 10C1.50004 10.6901 1.58793 11.3542 1.76372 11.9922C1.9395 12.6302 2.1934 13.2259 2.52543 13.7793C2.85747 14.3327 3.24809 14.8405 3.69731 15.3027C4.14653 15.765 4.65109 16.1556 5.21098 16.4746C5.77088 16.7936 6.36984 17.0443 7.00786 17.2266C7.64588 17.4089 8.30994 17.5 9.00005 17.5C9.69015 17.5 10.3542 17.4121 10.9922 17.2363C11.6303 17.0605 12.226 16.8066 12.7793 16.4746C13.3327 16.1426 13.8405 15.752 14.3028 15.3027C14.765 14.8535 15.1556 14.349 15.4747 13.7891C15.7937 13.2292 16.0443 12.6302 16.2266 11.9922C16.4089 11.3542 16.5001 10.6901 16.5001 10C16.5001 9.79167 16.4903 9.58333 16.4708 9.375C16.4512 9.16667 16.4252 8.95833 16.3926 8.75H16.4708L17.4571 7.76367ZM11.5 6.61133V3.80859L15.2501 0.0585938V3.75H18.9415L15.1915 7.5H12.3887L10.211 9.67773C10.237 9.77539 10.25 9.88281 10.25 10C10.25 10.1758 10.2175 10.3385 10.1524 10.4883C10.0873 10.638 9.9994 10.7682 9.88872 10.8789C9.77804 10.9896 9.64458 11.0807 9.48833 11.1523C9.33208 11.224 9.16932 11.2565 9.00005 11.25C8.82427 11.25 8.66151 11.2174 8.51177 11.1523C8.36203 11.0872 8.23182 10.9993 8.12114 10.8887C8.01046 10.778 7.91932 10.6445 7.8477 10.4883C7.77609 10.332 7.74354 10.1693 7.75005 10C7.75005 9.82422 7.7826 9.66146 7.8477 9.51172C7.91281 9.36198 8.0007 9.23177 8.11137 9.12109C8.22205 9.01042 8.35552 8.91927 8.51177 8.84766C8.66802 8.77604 8.83078 8.74349 9.00005 8.75C9.11724 8.75 9.22466 8.76302 9.32231 8.78906L11.5 6.61133ZM12.75 6.25H14.6739L15.9239 5H14V3.07617L12.75 4.32617V6.25Z" fill="#383E45"/>
</svg>
