<svg width="20" height="16" viewBox="0 0 20 16" fill="none" xmlns="http://www.w3.org/2000/svg">
<path fill-rule="evenodd" clip-rule="evenodd" d="M18.75 13V5.5C18.75 5.16848 18.6183 4.85054 18.3839 4.61612C18.1495 4.3817 17.8315 4.25 17.5 4.25H16.035C15.041 4.24946 14.0878 3.85425 13.385 3.15125L12.3475 2.11625C12.1137 1.88242 11.7969 1.75073 11.4663 1.75H8.535C8.20351 1.75007 7.88562 1.88181 7.65125 2.11625L6.61625 3.15125C5.91315 3.85456 4.95948 4.24979 3.965 4.25H2.5C2.16848 4.25 1.85054 4.3817 1.61612 4.61612C1.3817 4.85054 1.25 5.16848 1.25 5.5V13C1.25 13.3315 1.3817 13.6495 1.61612 13.8839C1.85054 14.1183 2.16848 14.25 2.5 14.25H17.5C17.8315 14.25 18.1495 14.1183 18.3839 13.8839C18.6183 13.6495 18.75 13.3315 18.75 13ZM2.5 3C1.83696 3 1.20107 3.26339 0.732233 3.73223C0.263392 4.20107 0 4.83696 0 5.5V13C0 13.663 0.263392 14.2989 0.732233 14.7678C1.20107 15.2366 1.83696 15.5 2.5 15.5H17.5C18.163 15.5 18.7989 15.2366 19.2678 14.7678C19.7366 14.2989 20 13.663 20 13V5.5C20 4.83696 19.7366 4.20107 19.2678 3.73223C18.7989 3.26339 18.163 3 17.5 3H16.035C15.372 2.99986 14.7362 2.73637 14.2675 2.2675L13.2325 1.2325C12.7638 0.763627 12.128 0.500142 11.465 0.5H8.535C7.87201 0.500142 7.23623 0.763627 6.7675 1.2325L5.7325 2.2675C5.26377 2.73637 4.62799 2.99986 3.965 3H2.5Z" fill="#383E45"/>
<path fill-rule="evenodd" clip-rule="evenodd" d="M10 11.75C10.8288 11.75 11.6237 11.4208 12.2097 10.8347C12.7958 10.2487 13.125 9.4538 13.125 8.625C13.125 7.7962 12.7958 7.00134 12.2097 6.41529C11.6237 5.82924 10.8288 5.5 10 5.5C9.1712 5.5 8.37634 5.82924 7.79029 6.41529C7.20424 7.00134 6.875 7.7962 6.875 8.625C6.875 9.4538 7.20424 10.2487 7.79029 10.8347C8.37634 11.4208 9.1712 11.75 10 11.75ZM10 13C11.1603 13 12.2731 12.5391 13.0936 11.7186C13.9141 10.8981 14.375 9.78532 14.375 8.625C14.375 7.46468 13.9141 6.35188 13.0936 5.53141C12.2731 4.71094 11.1603 4.25 10 4.25C8.83968 4.25 7.72688 4.71094 6.90641 5.53141C6.08594 6.35188 5.625 7.46468 5.625 8.625C5.625 9.78532 6.08594 10.8981 6.90641 11.7186C7.72688 12.5391 8.83968 13 10 13Z" fill="#383E45"/>
<path d="M3.75 6.125C3.75 6.29076 3.68415 6.44973 3.56694 6.56694C3.44973 6.68415 3.29076 6.75 3.125 6.75C2.95924 6.75 2.80027 6.68415 2.68306 6.56694C2.56585 6.44973 2.5 6.29076 2.5 6.125C2.5 5.95924 2.56585 5.80027 2.68306 5.68306C2.80027 5.56585 2.95924 5.5 3.125 5.5C3.29076 5.5 3.44973 5.56585 3.56694 5.68306C3.68415 5.80027 3.75 5.95924 3.75 6.125Z" fill="#383E45"/>
</svg>
