<svg width="16" height="6" viewBox="0 0 16 6" fill="none" xmlns="http://www.w3.org/2000/svg">
<path fill-rule="evenodd" clip-rule="evenodd" d="M0.5 4.875C0.5 4.70924 0.565848 4.55027 0.683059 4.43306C0.800269 4.31585 0.95924 4.25 1.125 4.25H14.8672C15.0329 4.25 15.1919 4.31585 15.3091 4.43306C15.4263 4.55027 15.4922 4.70924 15.4922 4.875C15.4922 5.04076 15.4263 5.19973 15.3091 5.31694C15.1919 5.43415 15.0329 5.5 14.8672 5.5H1.125C0.95924 5.5 0.800269 5.43415 0.683059 5.31694C0.565848 5.19973 0.5 5.04076 0.5 4.875ZM0.5 1.125C0.5 0.959239 0.565848 0.800268 0.683059 0.683058C0.800269 0.565847 0.95924 0.5 1.125 0.5H14.875C15.0408 0.5 15.1997 0.565847 15.3169 0.683058C15.4342 0.800268 15.5 0.959239 15.5 1.125C15.5 1.29076 15.4342 1.44973 15.3169 1.56694C15.1997 1.68415 15.0408 1.75 14.875 1.75H1.125C0.95924 1.75 0.800269 1.68415 0.683059 1.56694C0.565848 1.44973 0.5 1.29076 0.5 1.125Z" fill="#383E45"/>
</svg>
