<svg width="20" height="20" viewBox="0 0 20 20" fill="none" xmlns="http://www.w3.org/2000/svg">
<path fill-rule="evenodd" clip-rule="evenodd" d="M11.0461 2.03238C10.7386 0.988628 9.26111 0.988628 8.95361 2.03238L8.83611 2.43113C8.73729 2.76606 8.5648 3.07464 8.33127 3.33428C8.09775 3.59391 7.8091 3.79802 7.48647 3.93165C7.16385 4.06528 6.81541 4.12504 6.4667 4.10657C6.11798 4.08809 5.77781 3.99185 5.47111 3.82488L5.10611 3.62488C4.15111 3.10613 3.10611 4.14988 3.62611 5.10613L3.82486 5.47113C3.99183 5.77783 4.08808 6.118 4.10655 6.46671C4.12503 6.81543 4.06526 7.16386 3.93163 7.48649C3.798 7.80911 3.5939 8.09776 3.33426 8.33129C3.07463 8.56482 2.76604 8.73731 2.43111 8.83613L2.03236 8.95363C0.988613 9.26113 0.988613 10.7386 2.03236 11.0461L2.43111 11.1636C2.76622 11.2624 3.07497 11.4349 3.33474 11.6685C3.5945 11.9021 3.79869 12.1909 3.93234 12.5137C4.06598 12.8365 4.1257 13.1851 4.1071 13.534C4.0885 13.8828 3.99207 14.2231 3.82486 14.5299L3.62486 14.8936C3.10611 15.8486 4.14986 16.8936 5.10611 16.3736L5.47111 16.1749C5.77789 16.0079 6.11815 15.9117 6.46693 15.8933C6.81572 15.8749 7.1642 15.9348 7.48684 16.0686C7.80949 16.2023 8.09811 16.4066 8.33158 16.6663C8.56505 16.9261 8.73743 17.2348 8.83611 17.5699L8.95361 17.9674C9.26111 19.0111 10.7386 19.0111 11.0461 17.9674L11.1636 17.5686C11.2624 17.2335 11.4349 16.9248 11.6685 16.665C11.9021 16.4052 12.1909 16.201 12.5137 16.0674C12.8365 15.9338 13.1851 15.874 13.534 15.8926C13.8828 15.9112 14.2231 16.0077 14.5299 16.1749L14.8936 16.3749C15.8486 16.8936 16.8936 15.8499 16.3736 14.8936L16.1749 14.5299C16.0077 14.223 15.9113 13.8827 15.8928 13.5337C15.8742 13.1848 15.9341 12.8362 16.0678 12.5134C16.2016 12.1905 16.4059 11.9018 16.6659 11.6682C16.9258 11.4347 17.2346 11.2623 17.5699 11.1636L17.9674 11.0461C19.0111 10.7386 19.0111 9.26113 17.9674 8.95363L17.5686 8.83613C17.2337 8.73731 16.9251 8.56482 16.6655 8.33129C16.4058 8.09776 16.2017 7.80911 16.0681 7.48649C15.9345 7.16386 15.8747 6.81543 15.8932 6.46671C15.9116 6.118 16.0079 5.77783 16.1749 5.47113L16.3749 5.10613C16.8936 4.15113 15.8499 3.10613 14.8936 3.62613L14.5299 3.82488C14.2231 3.99232 13.8827 4.08894 13.5337 4.10766C13.1846 4.12638 12.8359 4.06672 12.5129 3.93306C12.19 3.79939 11.901 3.59512 11.6673 3.33523C11.4336 3.07533 11.2611 2.76641 11.1624 2.43113L11.0461 2.03238ZM7.75486 1.67863C8.41361 -0.558871 11.5861 -0.558871 12.2449 1.67863L12.3624 2.07738C12.4084 2.23357 12.4887 2.37748 12.5976 2.49858C12.7064 2.61967 12.841 2.71487 12.9914 2.77719C13.1419 2.83952 13.3043 2.86739 13.4669 2.85877C13.6295 2.85016 13.7881 2.80526 13.9311 2.72738L14.2961 2.52738C16.3461 1.41238 18.5886 3.65363 17.4711 5.70363L17.2724 6.06863C17.1945 6.21162 17.1496 6.37022 17.141 6.53282C17.1323 6.69542 17.1602 6.85788 17.2225 7.0083C17.2849 7.15873 17.3801 7.2933 17.5012 7.40215C17.6223 7.511 17.7662 7.59137 17.9224 7.63738L18.3211 7.75488C20.5586 8.41363 20.5586 11.5861 18.3211 12.2449L17.9224 12.3624C17.7662 12.4084 17.6223 12.4888 17.5012 12.5976C17.3801 12.7065 17.2849 12.841 17.2225 12.9914C17.1602 13.1419 17.1323 13.3043 17.141 13.4669C17.1496 13.6295 17.1945 13.7881 17.2724 13.9311L17.4724 14.2961C18.5886 16.3461 16.3449 18.5886 14.2961 17.4711L13.9311 17.2724C13.7881 17.1945 13.6295 17.1496 13.4669 17.141C13.3043 17.1324 13.1419 17.1602 12.9914 17.2226C12.841 17.2849 12.7064 17.3801 12.5976 17.5012C12.4887 17.6223 12.4084 17.7662 12.3624 17.9224L12.2449 18.3211C11.5861 20.5586 8.41361 20.5586 7.75486 18.3211L7.63736 17.9224C7.59136 17.7662 7.51098 17.6223 7.40213 17.5012C7.29328 17.3801 7.15871 17.2849 7.00829 17.2226C6.85786 17.1602 6.6954 17.1324 6.5328 17.141C6.37021 17.1496 6.2116 17.1945 6.06861 17.2724L5.70361 17.4724C3.65361 18.5886 1.41236 16.3449 2.52861 14.2961L2.72736 13.9311C2.80524 13.7881 2.85014 13.6295 2.85876 13.4669C2.86738 13.3043 2.8395 13.1419 2.77718 12.9914C2.71485 12.841 2.61965 12.7065 2.49856 12.5976C2.37747 12.4888 2.23355 12.4084 2.07736 12.3624L1.67861 12.2449C-0.558887 11.5861 -0.558887 8.41363 1.67861 7.75488L2.07736 7.63738C2.23355 7.59137 2.37747 7.511 2.49856 7.40215C2.61965 7.2933 2.71485 7.15873 2.77718 7.0083C2.8395 6.85788 2.86738 6.69542 2.85876 6.53282C2.85014 6.37022 2.80524 6.21162 2.72736 6.06863L2.52736 5.70363C1.41236 3.65363 3.65486 1.41238 5.70361 2.52863L6.06861 2.72738C6.2116 2.80526 6.37021 2.85016 6.5328 2.85877C6.6954 2.86739 6.85786 2.83952 7.00829 2.77719C7.15871 2.71487 7.29328 2.61967 7.40213 2.49858C7.51098 2.37748 7.59136 2.23357 7.63736 2.07738L7.75486 1.67863Z" fill="#383E45"/>
<path fill-rule="evenodd" clip-rule="evenodd" d="M9.99986 7.19238C9.25527 7.19238 8.54117 7.48817 8.01466 8.01468C7.48815 8.54118 7.19236 9.25528 7.19236 9.99988C7.19236 10.7445 7.48815 11.4586 8.01466 11.9851C8.54117 12.5116 9.25527 12.8074 9.99986 12.8074C10.7445 12.8074 11.4586 12.5116 11.9851 11.9851C12.5116 11.4586 12.8074 10.7445 12.8074 9.99988C12.8074 9.25528 12.5116 8.54118 11.9851 8.01468C11.4586 7.48817 10.7445 7.19238 9.99986 7.19238ZM5.94236 9.99988C5.94236 9.46704 6.04731 8.93942 6.25122 8.44714C6.45513 7.95486 6.754 7.50757 7.13078 7.13079C7.50755 6.75402 7.95485 6.45514 8.44712 6.25124C8.9394 6.04733 9.46702 5.94238 9.99986 5.94238C10.5327 5.94238 11.0603 6.04733 11.5526 6.25124C12.0449 6.45514 12.4922 6.75402 12.8689 7.13079C13.2457 7.50757 13.5446 7.95486 13.7485 8.44714C13.9524 8.93942 14.0574 9.46704 14.0574 9.99988C14.0574 11.076 13.6299 12.108 12.8689 12.869C12.108 13.6299 11.076 14.0574 9.99986 14.0574C8.92375 14.0574 7.89171 13.6299 7.13078 12.869C6.36985 12.108 5.94236 11.076 5.94236 9.99988Z" fill="#383E45"/>
</svg>
