<svg width="20" height="19" viewBox="0 0 20 19" fill="none" xmlns="http://www.w3.org/2000/svg">
<path fill-rule="evenodd" clip-rule="evenodd" d="M10.0003 3.4808L9.10402 2.54727C7.0002 0.355948 3.14259 1.11215 1.75004 3.86714C1.09627 5.16293 0.94877 7.03379 2.14256 9.42145C3.29259 11.7204 5.68516 14.4742 10.0003 17.4736C14.3154 14.4742 16.7067 11.7204 17.858 9.42145C19.0518 7.03253 18.9056 5.16293 18.2505 3.86714C16.858 1.11215 13.0004 0.354681 10.8966 2.54601L10.0003 3.4808ZM10.0003 19C-9.16654 6.16613 4.09887 -3.85064 9.78029 1.44781C9.85529 1.51748 9.92904 1.58968 10.0003 1.66441C10.0708 1.58975 10.1442 1.51791 10.2203 1.44908C15.9005 -3.85317 29.1671 6.16486 10.0003 19Z" fill="#383E45"/>
</svg>
