<svg width="20" height="20" viewBox="0 0 20 20" fill="none" xmlns="http://www.w3.org/2000/svg">
<path d="M20 2.5C20 2.9362 19.9349 3.32682 19.8047 3.67188C19.6745 4.01693 19.4922 4.37174 19.2578 4.73633L14.2188 12.3047C14.4727 12.7083 14.6647 13.138 14.7949 13.5938C14.9251 14.0495 14.9935 14.5182 15 15C15 15.6901 14.8698 16.3379 14.6094 16.9434C14.349 17.5488 13.9941 18.0794 13.5449 18.5352C13.0957 18.9909 12.5651 19.349 11.9531 19.6094C11.3411 19.8698 10.6901 20 10 20C9.3099 20 8.66211 19.8698 8.05664 19.6094C7.45117 19.349 6.92057 18.9941 6.46484 18.5449C6.00911 18.0957 5.65104 17.5651 5.39062 16.9531C5.13021 16.3411 5 15.6901 5 15C5 14.5247 5.0651 14.0592 5.19531 13.6035C5.32552 13.1478 5.52083 12.7148 5.78125 12.3047L0.742188 4.73633C0.507812 4.37826 0.325521 4.02669 0.195312 3.68164C0.0651042 3.33659 0 2.94271 0 2.5C0 2.15495 0.0651042 1.83268 0.195312 1.5332C0.325521 1.23372 0.504557 0.966797 0.732422 0.732422C0.960286 0.498047 1.22396 0.31901 1.52344 0.195312C1.82292 0.0716146 2.14844 0.00651042 2.5 0H17.5C17.8451 0 18.1673 0.0651042 18.4668 0.195312C18.7663 0.325521 19.0332 0.504557 19.2676 0.732422C19.502 0.960286 19.681 1.22396 19.8047 1.52344C19.9284 1.82292 19.9935 2.14844 20 2.5ZM15.3906 1.25H4.60938L6.26953 3.75H13.7305L15.3906 1.25ZM7.10938 5L10 9.3457L12.8906 5H7.10938ZM1.25 2.5C1.25 2.79948 1.29557 3.06641 1.38672 3.30078C1.47786 3.53516 1.60482 3.77604 1.76758 4.02344L6.63086 11.3086C6.96289 11.0026 7.32747 10.7487 7.72461 10.5469C8.12175 10.3451 8.54818 10.1953 9.00391 10.0977L3.10547 1.25H2.5C2.32422 1.25 2.16146 1.28255 2.01172 1.34766C1.86198 1.41276 1.73177 1.50065 1.62109 1.61133C1.51042 1.72201 1.41927 1.85547 1.34766 2.01172C1.27604 2.16797 1.24349 2.33073 1.25 2.5ZM10 18.75C10.5143 18.75 10.9993 18.6523 11.4551 18.457C11.9108 18.2617 12.3079 17.9948 12.6465 17.6562C12.985 17.3177 13.2552 16.9206 13.457 16.4648C13.6589 16.0091 13.7565 15.5208 13.75 15C13.75 14.4857 13.6523 14.0007 13.457 13.5449C13.2617 13.0892 12.9948 12.6921 12.6562 12.3535C12.3177 12.015 11.9173 11.7448 11.4551 11.543C10.9928 11.3411 10.5078 11.2435 10 11.25C9.47917 11.25 8.99414 11.3477 8.54492 11.543C8.0957 11.7383 7.69857 12.0052 7.35352 12.3438C7.00846 12.6823 6.73828 13.0827 6.54297 13.5449C6.34766 14.0072 6.25 14.4922 6.25 15C6.25 15.5208 6.34766 16.0059 6.54297 16.4551C6.73828 16.9043 7.00521 17.3014 7.34375 17.6465C7.68229 17.9915 8.07943 18.2617 8.53516 18.457C8.99089 18.6523 9.47917 18.75 10 18.75ZM18.2422 4.00391C18.4049 3.78255 18.5286 3.54492 18.6133 3.29102C18.6979 3.03711 18.7435 2.77344 18.75 2.5C18.75 2.32422 18.7174 2.16146 18.6523 2.01172C18.5872 1.86198 18.4993 1.73177 18.3887 1.62109C18.278 1.51042 18.1445 1.41927 17.9883 1.34766C17.832 1.27604 17.6693 1.24349 17.5 1.25H16.8945L10.9961 10.0977C11.4453 10.1888 11.8685 10.3353 12.2656 10.5371C12.6628 10.7389 13.0306 10.9961 13.3691 11.3086L18.2422 4.01367V4.00391Z" fill="#383E45"/>
</svg>
