<svg width="20" height="20" viewBox="0 0 20 20" fill="none" xmlns="http://www.w3.org/2000/svg">
<path d="M19.4841 4.41382C19.1701 4.10062 18.7585 3.92081 18.3184 3.90277C18.8202 3.21566 18.7611 2.24382 18.1411 1.62379C17.5132 0.995897 16.5245 0.94328 15.8361 1.46586C15.6967 0.635077 14.9724 0 14.1027 0C13.1335 0 12.345 0.788514 12.345 1.75769V4.01437C10.8026 3.6298 9.10248 4.0332 7.88787 5.24784C6.26628 6.86948 0.693044 17.8984 0.062928 19.1506C-0.0518374 19.3787 -0.00574372 19.6548 0.176873 19.8332C0.359451 20.0116 0.63656 20.0512 0.861872 19.9311C2.78906 18.9041 12.9729 13.421 14.517 11.877C15.723 10.671 16.133 8.966 15.7474 7.42049L18.2438 7.4244C19.213 7.42381 20.0009 6.63128 20.0003 5.65772C20 5.18737 19.8167 4.74562 19.4841 4.41382ZM13.6884 11.0483C13.5119 11.2248 13.1872 11.4712 12.7515 11.7688L11.2396 10.2569C11.0108 10.0281 10.6398 10.0281 10.411 10.2569C10.1822 10.4857 10.1822 10.8567 10.411 11.0855L11.7484 12.4229C10.8648 12.9793 9.76834 13.6311 8.59256 14.3104L7.95623 13.6741C7.72745 13.4453 7.35643 13.4453 7.1276 13.6741C6.89877 13.9029 6.89877 14.2739 7.1276 14.5027L7.53936 14.9145C5.59585 16.0215 3.55011 17.1477 1.95671 18.0115C2.48843 16.9745 3.12448 15.7485 3.79401 14.482C4.02655 14.6961 4.38327 14.6868 4.60448 14.4656C4.83331 14.2367 4.83331 13.8658 4.60448 13.6369L4.36854 13.401C4.95905 12.2961 5.5596 11.1925 6.12475 10.1853L7.09045 11.151C7.31924 11.3798 7.69026 11.3799 7.91909 11.151C8.14791 10.9222 8.14791 10.5512 7.91909 10.3224L6.72545 9.12877C7.59244 7.62631 8.3217 6.47143 8.71658 6.07655L10.3738 7.73381C10.6027 7.96264 10.9736 7.96264 11.2025 7.73381C11.4313 7.50499 11.4313 7.13401 11.2025 6.90518L9.68627 5.38897C10.9685 4.77523 12.5878 4.97597 13.6884 6.07655C15.0591 7.44721 15.0591 9.67756 13.6884 11.0483ZM18.2444 6.25257L15.2789 6.25573C15.0757 5.89761 14.822 5.5528 14.517 5.24788C14.2148 4.94565 13.8707 4.69769 13.5091 4.49171V1.76554C13.5091 1.44254 13.7797 1.17191 14.1027 1.17191C14.4257 1.17191 14.6885 1.43472 14.6885 1.75773V2.83316C14.6885 3.35281 15.3199 3.61636 15.6888 3.24749L16.4838 2.45246C16.7123 2.22398 17.084 2.22402 17.3125 2.45246C17.5409 2.68093 17.5409 3.05265 17.3125 3.28109L16.5196 4.07398C16.1513 4.44226 16.4132 5.07425 16.9339 5.07425C16.9341 5.07425 16.9342 5.07425 16.9344 5.07425L18.243 5.07315C18.2434 5.07315 18.2437 5.07315 18.2441 5.07315C18.5678 5.07315 18.8283 5.33483 18.8285 5.6585C18.8287 5.98585 18.5661 6.25233 18.2444 6.25257Z" fill="#383E45"/>
</svg>
