<svg width="8" height="12" viewBox="0 0 8 12" fill="none" xmlns="http://www.w3.org/2000/svg">
<path fill-rule="evenodd" clip-rule="evenodd" d="M1.5 0.375C1.66576 0.375 1.82473 0.440848 1.94194 0.558058C2.05915 0.675269 2.125 0.83424 2.125 1V11C2.125 11.1658 2.05915 11.3247 1.94194 11.4419C1.82473 11.5592 1.66576 11.625 1.5 11.625C1.33424 11.625 1.17527 11.5592 1.05806 11.4419C0.940848 11.3247 0.875 11.1658 0.875 11V1C0.875 0.83424 0.940848 0.675269 1.05806 0.558058C1.17527 0.440848 1.33424 0.375 1.5 0.375ZM6.5 0.375C6.66576 0.375 6.82473 0.440848 6.94194 0.558058C7.05915 0.675269 7.125 0.83424 7.125 1V11C7.125 11.1658 7.05915 11.3247 6.94194 11.4419C6.82473 11.5592 6.66576 11.625 6.5 11.625C6.33424 11.625 6.17527 11.5592 6.05806 11.4419C5.94085 11.3247 5.875 11.1658 5.875 11V1C5.875 0.83424 5.94085 0.675269 6.05806 0.558058C6.17527 0.440848 6.33424 0.375 6.5 0.375Z" fill="#383E45"/>
</svg>
