<svg width="20" height="20" viewBox="0 0 20 20" fill="none" xmlns="http://www.w3.org/2000/svg">
<path d="M7.75915 0.00100708L7.37967 0.10802C5.29619 0.695558 3.41871 1.96958 2.09312 3.69537C0.723794 5.47808 0 7.61142 0 9.8647C0 12.5722 1.05434 15.1176 2.96878 17.032C4.8833 18.9465 7.42864 20.0009 10.1362 20.0009C12.3896 20.0009 14.5231 19.277 16.3058 17.9075C18.0317 16.5817 19.3057 14.7041 19.893 12.6204L20 12.241L7.75915 0.00100708ZM7.96478 2.10937L17.8913 12.0352C17.4887 12.091 17.0811 12.1192 16.6715 12.1192C11.8243 12.1192 7.88082 8.17578 7.88082 3.32858C7.88082 2.91919 7.90899 2.51186 7.96478 2.10937ZM10.1362 18.6554C5.28897 18.6554 1.34551 14.7119 1.34551 9.8647C1.34551 6.33656 3.47765 3.16537 6.65143 1.79215C6.57438 2.29878 6.53532 2.81236 6.53532 3.32858C6.53532 6.03606 7.58966 8.58149 9.50409 10.4959C11.4186 12.4104 13.964 13.4647 16.6715 13.4647C17.1881 13.4647 17.7021 13.4256 18.2091 13.3484C16.8361 16.5228 13.6647 18.6554 10.1362 18.6554Z" fill="#383E45"/>
</svg>
