<svg width="18" height="20" viewBox="0 0 18 20" fill="none" xmlns="http://www.w3.org/2000/svg">
<path d="M9 20C9.66304 20 10.2989 19.7366 10.7678 19.2678C11.2366 18.7989 11.5 18.163 11.5 17.5H6.5C6.5 18.163 6.76339 18.7989 7.23223 19.2678C7.70107 19.7366 8.33696 20 9 20Z" fill="#383E45"/>
<path fill-rule="evenodd" clip-rule="evenodd" d="M9 2.3975L8.00375 2.59875C6.8737 2.829 5.85791 3.44262 5.12831 4.33577C4.39872 5.22892 4.00012 6.34673 4 7.5C4 8.285 3.8325 10.2462 3.42625 12.1775C3.22625 13.1362 2.95625 14.135 2.5975 15H15.4025C15.0437 14.135 14.775 13.1375 14.5737 12.1775C14.1675 10.2462 14 8.285 14 7.5C13.9996 6.34694 13.6009 5.22943 12.8713 4.33654C12.1417 3.44365 11.1261 2.8302 9.99625 2.6L9 2.39625V2.3975ZM16.775 15C17.0537 15.5587 17.3762 16.0012 17.75 16.25H0.25C0.62375 16.0012 0.94625 15.5587 1.225 15C2.35 12.75 2.75 8.6 2.75 7.5C2.75 4.475 4.9 1.95 7.75625 1.37375C7.7388 1.19994 7.75798 1.0244 7.81254 0.858462C7.8671 0.69252 7.95584 0.539857 8.07303 0.410318C8.19022 0.280778 8.33325 0.177238 8.49292 0.106376C8.65258 0.0355132 8.82532 -0.00109863 9 -0.00109863C9.17468 -0.00109863 9.34742 0.0355132 9.50709 0.106376C9.66675 0.177238 9.80978 0.280778 9.92697 0.410318C10.0442 0.539857 10.1329 0.69252 10.1875 0.858462C10.242 1.0244 10.2612 1.19994 10.2437 1.37375C11.6566 1.66112 12.9267 2.42795 13.839 3.54437C14.7514 4.6608 15.2498 6.05821 15.25 7.5C15.25 8.6 15.65 12.75 16.775 15Z" fill="#383E45"/>
</svg>
