<svg width="15" height="11" viewBox="0 0 15 11" fill="none" xmlns="http://www.w3.org/2000/svg">
<path fill-rule="evenodd" clip-rule="evenodd" d="M14.1933 0.183617C14.2515 0.241674 14.2977 0.310644 14.3292 0.386575C14.3607 0.462507 14.3769 0.543908 14.3769 0.626117C14.3769 0.708326 14.3607 0.789728 14.3292 0.865659C14.2977 0.941591 14.2515 1.01056 14.1933 1.06862L5.44329 9.81861C5.38523 9.87682 5.31627 9.923 5.24033 9.95451C5.1644 9.98601 5.083 10.0022 5.00079 10.0022C4.91858 10.0022 4.83718 9.98601 4.76125 9.95451C4.68532 9.923 4.61635 9.87682 4.55829 9.81861L0.183289 5.44362C0.0659311 5.32626 0 5.16709 0 5.00112C0 4.83515 0.0659311 4.67597 0.183289 4.55862C0.300648 4.44126 0.45982 4.37533 0.62579 4.37533C0.791759 4.37533 0.950932 4.44126 1.06829 4.55862L5.00079 8.49237L13.3083 0.183617C13.3664 0.125413 13.4353 0.0792347 13.5113 0.0477266C13.5872 0.0162186 13.6686 0 13.7508 0C13.833 0 13.9144 0.0162186 13.9903 0.0477266C14.0663 0.0792347 14.1352 0.125413 14.1933 0.183617Z" fill="#383E45"/>
</svg>
