<svg width="18" height="18" viewBox="0 0 18 18" fill="none" xmlns="http://www.w3.org/2000/svg">
<path fill-rule="evenodd" clip-rule="evenodd" d="M13.1162 0.616258C13.3507 0.381919 13.6685 0.250275 14 0.250275C14.3315 0.250275 14.6493 0.381919 14.8837 0.616258L17.3837 3.11626C17.6181 3.35067 17.7497 3.66855 17.7497 4.00001C17.7497 4.33146 17.6181 4.64935 17.3837 4.88376L6.13375 16.1338C5.9969 16.271 5.83 16.3746 5.64625 16.4363L1.89625 17.6863C1.67593 17.76 1.43941 17.7709 1.21325 17.7177C0.987078 17.6646 0.780208 17.5494 0.615856 17.3852C0.451503 17.2209 0.336172 17.0142 0.282808 16.788C0.229444 16.5619 0.240158 16.3254 0.313748 16.105L1.56375 12.355C1.62525 12.1708 1.72882 12.0035 1.86625 11.8663L13.1162 0.616258ZM14 1.50001L16.5 4.00001L5.25 15.25L1.5 16.5L2.75 12.75L14 1.50001Z" fill="#383E45"/>
</svg>
