<svg width="20" height="20" viewBox="0 0 20 20" fill="none" xmlns="http://www.w3.org/2000/svg">
<path d="M10 0C10.9 0 11.8 0.1 12.7 0.4C13.6 0.6 14.4 1 15.1 1.4C15.8 1.8 16.5 2.4 17.1 3C17.7 3.6 18.2 4.3 18.7 5C19.1 5.7 19.5 6.5 19.7 7.4C19.9 8.2 20 9.1 20 10C20 10.9 19.9 11.8 19.6 12.7C19.4 13.6 19 14.4 18.6 15.1C18.2 15.8 17.6 16.5 17 17.1C16.4 17.7 15.7 18.2 15 18.7C14.3 19.1 13.5 19.5 12.6 19.7C11.8 19.9 10.9 20 10 20C9.1 20 8.2 19.9 7.3 19.6C6.4 19.4 5.6 19 4.9 18.6C4.2 18.2 3.5 17.6 2.9 17C2.3 16.4 1.8 15.7 1.3 15C0.9 14.3 0.5 13.5 0.3 12.6C0.1 11.8 0 10.9 0 10C0 9.1 0.1 8.2 0.4 7.3C0.6 6.4 1 5.6 1.4 4.9C1.8 4.2 2.4 3.5 3 2.9C3.6 2.3 4.3 1.8 5 1.3C5.7 0.8 6.5 0.5 7.4 0.3C8.2 0.1 9.1 0 10 0ZM10 18.8C10.8 18.8 11.6 18.7 12.3 18.5C13 18.3 13.7 18 14.4 17.6C15.1 17.2 15.6 16.8 16.2 16.2C16.7 15.7 17.2 15.1 17.6 14.4C18 13.8 18.3 13.1 18.5 12.3C18.7 11.5 18.8 10.8 18.8 10C18.8 9.2 18.7 8.4 18.5 7.7C18.3 7 18 6.3 17.6 5.6C17.2 4.9 16.8 4.4 16.2 3.8C15.7 3.3 15.1 2.8 14.4 2.4C13.8 2 13.1 1.7 12.3 1.5C11.5 1.3 10.8 1.2 10 1.2C9.2 1.2 8.4 1.3 7.7 1.5C6.9 1.8 6.2 2.1 5.6 2.4C4.9 2.8 4.4 3.3 3.8 3.8C3.3 4.3 2.8 4.9 2.4 5.6C2.1 6.2 1.8 6.9 1.6 7.7C1.4 8.5 1.2 9.2 1.3 10C1.3 10.8 1.4 11.6 1.6 12.3C1.8 13 2.1 13.7 2.5 14.4C2.9 15.1 3.3 15.6 3.9 16.2C4.4 16.7 5 17.2 5.7 17.6C6.4 18 7 18.3 7.8 18.5C8.6 18.7 9.2 18.8 10 18.8ZM10 15C10.5 15 10.9 14.9 11.4 14.8C11.8 14.7 12.3 14.5 12.7 14.2C13.1 14 13.4 13.7 13.7 13.3C14 13 14.3 12.6 14.5 12.1L15.6 12.7C15.3 13.2 15 13.7 14.6 14.1C14.2 14.5 13.8 14.9 13.3 15.2C12.8 15.5 12.3 15.7 11.7 15.9C11.1 16.1 10.6 16.1 10 16.1C9.4 16.1 8.8 16 8.3 15.9C7.7 15.7 7.2 15.5 6.7 15.2C6.2 14.9 5.8 14.5 5.4 14.1C5 13.7 4.7 13.2 4.4 12.7L5.5 12.1C5.8 12.6 6 13 6.3 13.4C6.6 13.7 7 14 7.3 14.3C7.7 14.5 8.1 14.7 8.5 14.9C9 14.9 9.5 15 10 15Z" fill="#383E45"/>
<path d="M8.8 7H7.6C7.6 6.3 7 5.7 6.3 5.7C5.5 5.7 4.9 6.3 4.9 7H3.7C3.7 5.6 4.8 4.4 6.3 4.4C7.8 4.4 8.8 5.6 8.8 7Z" fill="#383E45"/>
<path d="M16.3 7H15C15 6.3 14.4 5.7 13.7 5.7C13 5.7 12.4 6.3 12.4 7H11.1C11.1 5.6 12.2 4.4 13.7 4.4C15.2 4.4 16.3 5.6 16.3 7Z" fill="#383E45"/>
</svg>
