<svg width="20" height="17" viewBox="0 0 20 17" fill="none" xmlns="http://www.w3.org/2000/svg">
<path fill-rule="evenodd" clip-rule="evenodd" d="M0.625 8.99999C0.79076 8.99999 0.949732 9.06584 1.06694 9.18305C1.18415 9.30026 1.25 9.45923 1.25 9.62499V14C1.25 14.3315 1.3817 14.6495 1.61612 14.8839C1.85054 15.1183 2.16848 15.25 2.5 15.25H17.5C17.8315 15.25 18.1495 15.1183 18.3839 14.8839C18.6183 14.6495 18.75 14.3315 18.75 14V9.62499C18.75 9.45923 18.8158 9.30026 18.9331 9.18305C19.0503 9.06584 19.2092 8.99999 19.375 8.99999C19.5408 8.99999 19.6997 9.06584 19.8169 9.18305C19.9342 9.30026 20 9.45923 20 9.62499V14C20 14.663 19.7366 15.2989 19.2678 15.7678C18.7989 16.2366 18.163 16.5 17.5 16.5H2.5C1.83696 16.5 1.20107 16.2366 0.732233 15.7678C0.263392 15.2989 0 14.663 0 14V9.62499C0 9.45923 0.065848 9.30026 0.183058 9.18305C0.300269 9.06584 0.45924 8.99999 0.625 8.99999ZM6.25 5.06749C6.3672 5.18466 6.52615 5.25048 6.69187 5.25048C6.8576 5.25048 7.01655 5.18466 7.13375 5.06749L10 2.19999L12.8663 5.06624C12.9239 5.12594 12.9929 5.17355 13.0691 5.20631C13.1454 5.23906 13.2274 5.2563 13.3104 5.25702C13.3934 5.25774 13.4757 5.24193 13.5525 5.21051C13.6293 5.17908 13.6991 5.13267 13.7577 5.07399C13.8164 5.01531 13.8628 4.94552 13.8943 4.86871C13.9257 4.7919 13.9415 4.7096 13.9408 4.62662C13.9401 4.54363 13.9228 4.46162 13.8901 4.38536C13.8573 4.30911 13.8097 4.24015 13.75 4.18249L10.4425 0.874993C10.3844 0.816789 10.3155 0.77061 10.2395 0.739102C10.1636 0.707594 10.0822 0.691376 10 0.691376C9.91779 0.691376 9.83639 0.707594 9.76046 0.739102C9.68453 0.77061 9.61556 0.816789 9.5575 0.874993L6.25 4.18249C6.1918 4.24055 6.14562 4.30952 6.11411 4.38545C6.0826 4.46138 6.06638 4.54278 6.06638 4.62499C6.06638 4.7072 6.0826 4.7886 6.11411 4.86453C6.14562 4.94047 6.1918 5.00943 6.25 5.06749Z" fill="#383E45"/>
<path fill-rule="evenodd" clip-rule="evenodd" d="M10 1.49999C10.1658 1.49999 10.3247 1.56584 10.4419 1.68305C10.5592 1.80026 10.625 1.95923 10.625 2.12499V12.125C10.625 12.2908 10.5592 12.4497 10.4419 12.5669C10.3247 12.6841 10.1658 12.75 10 12.75C9.83424 12.75 9.67527 12.6841 9.55806 12.5669C9.44085 12.4497 9.375 12.2908 9.375 12.125V2.12499C9.375 1.95923 9.44085 1.80026 9.55806 1.68305C9.67527 1.56584 9.83424 1.49999 10 1.49999Z" fill="#383E45"/>
</svg>
