<svg width="32" height="32" viewBox="0 0 32 32" fill="none" xmlns="http://www.w3.org/2000/svg">
<path d="M16 0C17.44 0 18.88 0.16 20.32 0.64C21.76 0.96 23.04 1.6 24.16 2.24C25.28 2.88 26.4 3.84 27.36 4.8C28.32 5.76 29.12 6.88 29.92 8C30.56 9.12 31.2 10.4 31.52 11.84C31.84 13.12 32 14.56 32 16C32 17.44 31.84 18.88 31.36 20.32C31.04 21.76 30.4 23.04 29.76 24.16C29.12 25.28 28.16 26.4 27.2 27.36C26.24 28.32 25.12 29.12 24 29.92C22.88 30.56 21.6 31.2 20.16 31.52C18.88 31.84 17.44 32 16 32C14.56 32 13.12 31.84 11.68 31.36C10.24 31.04 8.96 30.4 7.84 29.76C6.72 29.12 5.6 28.16 4.64 27.2C3.68 26.24 2.88 25.12 2.08 24C1.44 22.88 0.8 21.6 0.48 20.16C0.16 18.88 0 17.44 0 16C0 14.56 0.16 13.12 0.64 11.68C0.96 10.24 1.6 8.96 2.24 7.84C2.88 6.72 3.84 5.6 4.8 4.64C5.76 3.68 6.88 2.88 8 2.08C9.12 1.28 10.4 0.8 11.84 0.48C13.12 0.16 14.56 0 16 0ZM16 30.08C17.28 30.08 18.56 29.92 19.68 29.6C20.8 29.28 21.92 28.8 23.04 28.16C24.16 27.52 24.96 26.88 25.92 25.92C26.72 25.12 27.52 24.16 28.16 23.04C28.8 22.08 29.28 20.96 29.6 19.68C29.92 18.4 30.08 17.28 30.08 16C30.08 14.72 29.92 13.44 29.6 12.32C29.28 11.2 28.8 10.08 28.16 8.96C27.52 7.84 26.88 7.04 25.92 6.08C25.12 5.28 24.16 4.48 23.04 3.84C22.08 3.2 20.96 2.72 19.68 2.4C18.4 2.08 17.28 1.92 16 1.92C14.72 1.92 13.44 2.08 12.32 2.4C11.04 2.88 9.92 3.36 8.96 3.84C7.84 4.48 7.04 5.28 6.08 6.08C5.28 6.88 4.48 7.84 3.84 8.96C3.36 9.92 2.88 11.04 2.56 12.32C2.24 13.6 1.92 14.72 2.08 16C2.08 17.28 2.24 18.56 2.56 19.68C2.88 20.8 3.36 21.92 4 23.04C4.64 24.16 5.28 24.96 6.24 25.92C7.04 26.72 8 27.52 9.12 28.16C10.24 28.8 11.2 29.28 12.48 29.6C13.76 29.92 14.72 30.08 16 30.08ZM16 24C16.8 24 17.44 23.84 18.24 23.68C18.88 23.52 19.68 23.2 20.32 22.72C20.96 22.4 21.44 21.92 21.92 21.28C22.4 20.8 22.88 20.16 23.2 19.36L24.96 20.32C24.48 21.12 24 21.92 23.36 22.56C22.72 23.2 22.08 23.84 21.28 24.32C20.48 24.8 19.68 25.12 18.72 25.44C17.76 25.76 16.96 25.76 16 25.76C15.04 25.76 14.08 25.6 13.28 25.44C12.32 25.12 11.52 24.8 10.72 24.32C9.92 23.84 9.28 23.2 8.64 22.56C8 21.92 7.52 21.12 7.04 20.32L8.8 19.36C9.28 20.16 9.6 20.8 10.08 21.44C10.56 21.92 11.2 22.4 11.68 22.88C12.32 23.2 12.96 23.52 13.6 23.84C14.4 23.84 15.2 24 16 24Z" fill="#383E45"/>
<path d="M14.08 11.2H12.16C12.16 10.08 11.2 9.12 10.08 9.12C8.8 9.12 7.84 10.08 7.84 11.2H5.92C5.92 8.96 7.68 7.04 10.08 7.04C12.48 7.04 14.08 8.96 14.08 11.2Z" fill="#383E45"/>
<path d="M26.08 11.2H24C24 10.08 23.04 9.12 21.92 9.12C20.8 9.12 19.84 10.08 19.84 11.2H17.76C17.76 8.96 19.52 7.04 21.92 7.04C24.32 7.04 26.08 8.96 26.08 11.2Z" fill="#383E45"/>
</svg>
