<svg width="20" height="16" viewBox="0 0 20 16" fill="none" xmlns="http://www.w3.org/2000/svg">
<path d="M19.9294 11.8622C19.8389 11.7008 19.6735 11.5984 19.4924 11.5827C19.2444 7.22045 16.0396 3.64168 11.8624 2.80702C12.0435 1.83064 11.6892 0.417236 10.0041 0.417236C8.41358 0.417236 7.90177 1.87001 8.14586 2.80702C3.96078 3.64168 0.759964 7.22439 0.507993 11.5827C0.326888 11.5984 0.161532 11.7008 0.0709804 11.8622C-0.0274458 12.0394 -0.0235087 12.252 0.0827915 12.4252L1.86627 15.319C1.96864 15.4843 2.1458 15.5827 2.33872 15.5827H17.6578C17.8507 15.5827 18.0278 15.4843 18.1302 15.319L19.9137 12.4252C20.0239 12.252 20.0279 12.0394 19.9294 11.8622ZM10.0002 1.52748C10.89 1.52748 10.8664 2.3582 10.7404 2.65348C10.4963 2.63379 10.2482 2.62198 10.0002 2.62198C9.75218 2.62198 9.50414 2.63379 9.26005 2.65348C9.13406 2.3582 9.08288 1.52748 10.0002 1.52748ZM10.0002 3.73617C14.4451 3.73617 18.0908 7.2047 18.3782 11.5788H1.62218C1.90958 7.2047 5.55529 3.73617 10.0002 3.73617ZM17.3507 14.4725H2.64975L1.55131 12.689H18.4491L17.3507 14.4725Z" fill="#383E45"/>
</svg>
