<svg width="18" height="20" viewBox="0 0 18 20" fill="none" xmlns="http://www.w3.org/2000/svg">
<path d="M16.4817 1.17188H16.5235C16.8471 1.17188 17.1094 0.909576 17.1094 0.585938C17.1094 0.262299 16.8471 0 16.5235 0H3.02985C1.84164 0 0.875 0.966644 0.875 2.155V17.8452C0.875 19.0334 1.84164 20 3.02985 20H14.9544C16.1426 20 17.1094 19.0334 17.1094 17.8452V5.29297C17.1094 4.70108 16.8694 4.16428 16.4818 3.77441L16.4817 1.17188ZM3.02985 1.17188H15.3098V3.16788C15.1942 3.14865 15.0754 3.13812 14.9543 3.13812H3.02985C2.48785 3.13812 2.04688 2.69714 2.04688 2.155C2.04688 1.61285 2.48785 1.17188 3.02985 1.17188ZM15.9376 17.8452C15.9376 18.3871 15.4966 18.8281 14.9544 18.8281H3.02985C2.48785 18.8281 2.04688 18.3871 2.04688 17.8452V4.07242C2.34183 4.22424 2.67599 4.31 3.02985 4.31H14.9544C15.1658 4.31 15.3615 4.37729 15.5221 4.49112C15.5361 4.50272 15.5506 4.5137 15.5657 4.52393C15.7921 4.70413 15.9376 4.98184 15.9376 5.29297V17.8452Z" fill="#383E45"/>
<path d="M11.1887 7.46841C11.1344 7.46841 11.0798 7.47009 11.0251 7.4733C10.5022 6.91483 9.76538 6.58981 8.99222 6.58981C8.21906 6.58981 7.48221 6.91467 6.95944 7.4733C6.90466 7.47009 6.85004 7.46841 6.79572 7.46841C5.26129 7.46841 4.01312 8.71674 4.01312 10.251C4.01312 11.5843 4.95581 12.7016 6.20978 12.9715V15.9622C6.20978 16.2859 6.47208 16.5482 6.79572 16.5482H11.1889C11.5124 16.5482 11.7748 16.2859 11.7748 15.9622V12.9715C13.0286 12.7017 13.9715 11.5843 13.9715 10.251C13.9715 8.71674 12.7231 7.46841 11.1887 7.46841ZM7.38165 15.3763V14.6654H10.6029V15.3763H7.38165ZM11.1887 11.8617C10.8652 11.8617 10.6028 12.124 10.6028 12.4477V13.4935H7.3815V12.4477C7.3815 12.124 7.1192 11.8617 6.79556 11.8617C5.9075 11.8617 5.185 11.1391 5.185 10.251C5.185 9.36295 5.9075 8.64044 6.79556 8.64044C6.89536 8.64044 6.99713 8.65005 7.09799 8.66913C7.32169 8.7114 7.54996 8.62015 7.68286 8.43506C7.98544 8.01346 8.47495 7.76169 8.99222 7.76169C9.50949 7.76169 9.99899 8.01346 10.3016 8.43506C10.4345 8.6203 10.6628 8.71155 10.8866 8.66913C10.9873 8.65005 11.0891 8.64044 11.1889 8.64044C12.0769 8.64044 12.7996 9.36295 12.7996 10.251C12.7996 11.1391 12.0769 11.8617 11.1887 11.8617Z" fill="#383E45"/>
</svg>
