<svg width="15" height="13" viewBox="0 0 15 13" fill="none" xmlns="http://www.w3.org/2000/svg">
<path fill-rule="evenodd" clip-rule="evenodd" d="M0 8.625C0 8.45924 0.0658485 8.30027 0.183059 8.18306C0.300269 8.06585 0.45924 8 0.625 8H9.375C9.54076 8 9.69973 8.06585 9.81694 8.18306C9.93415 8.30027 10 8.45924 10 8.625C10 8.79076 9.93415 8.94973 9.81694 9.06694C9.69973 9.18415 9.54076 9.25 9.375 9.25H0.625C0.45924 9.25 0.300269 9.18415 0.183059 9.06694C0.0658485 8.94973 0 8.79076 0 8.625ZM0 4.875C0 4.70924 0.0658485 4.55027 0.183059 4.43306C0.300269 4.31585 0.45924 4.25 0.625 4.25H11.875C12.0408 4.25 12.1997 4.31585 12.3169 4.43306C12.4342 4.55027 12.5 4.70924 12.5 4.875C12.5 5.04076 12.4342 5.19973 12.3169 5.31694C12.1997 5.43415 12.0408 5.5 11.875 5.5H0.625C0.45924 5.5 0.300269 5.43415 0.183059 5.31694C0.0658485 5.19973 0 5.04076 0 4.875ZM0 1.125C0 0.95924 0.0658485 0.800268 0.183059 0.683058C0.300269 0.565847 0.45924 0.5 0.625 0.5H14.375C14.5408 0.5 14.6997 0.565847 14.8169 0.683058C14.9342 0.800268 15 0.95924 15 1.125C15 1.29076 14.9342 1.44973 14.8169 1.56694C14.6997 1.68415 14.5408 1.75 14.375 1.75H0.625C0.45924 1.75 0.300269 1.68415 0.183059 1.56694C0.0658485 1.44973 0 1.29076 0 1.125ZM0 12.375C0 12.2092 0.0658485 12.0503 0.183059 11.9331C0.300269 11.8158 0.45924 11.75 0.625 11.75H6.875C7.04076 11.75 7.19973 11.8158 7.31694 11.9331C7.43415 12.0503 7.5 12.2092 7.5 12.375C7.5 12.5408 7.43415 12.6997 7.31694 12.8169C7.19973 12.9342 7.04076 13 6.875 13H0.625C0.45924 13 0.300269 12.9342 0.183059 12.8169C0.0658485 12.6997 0 12.5408 0 12.375Z" fill="#383E45"/>
</svg>
