<svg width="15" height="20" viewBox="0 0 15 20" fill="none" xmlns="http://www.w3.org/2000/svg">
<path d="M9.87896 3.72093C10.8939 3.72093 11.7412 2.86512 11.7412 1.86047C11.7412 0.818605 10.8939 0 9.87896 0C8.84544 0 8.01676 0.818605 8.01676 1.86047C8.01676 2.86512 8.84544 3.72093 9.87896 3.72093ZM6.51769 16.6326L7.44879 12.5581L9.41341 14.4186V20H11.2756V13.0233L9.31099 11.1628L9.87896 8.37209C11.0801 9.76744 12.9423 10.6977 15 10.6977V8.83721C13.2216 8.83721 11.7412 7.90698 10.987 6.58605L10.0559 5.11628C9.68342 4.53954 9.12477 4.18605 8.48231 4.18605C8.19367 4.18605 8.01676 4.26047 7.72812 4.26047L2.89572 6.30698V10.6977H4.75791V7.51628L6.42458 6.86512L4.93482 14.4186L0.372439 13.4884L0 15.3488L6.51769 16.6326Z" fill="#383E45"/>
</svg>
