<svg width="20" height="20" viewBox="0 0 20 20" fill="none" xmlns="http://www.w3.org/2000/svg">
<path d="M18.8366 5.79027L19.5321 5.09476C20.156 4.47097 20.156 3.45591 19.5321 2.83208L17.168 0.467883C16.5441 -0.155866 15.5291 -0.155906 14.9053 0.467923L14.2098 1.16343L13.571 0.524562C12.9471 -0.0991872 11.9321 -0.0992272 11.3083 0.524602L9.89726 1.93562C9.27199 2.5608 9.27187 3.57303 9.89726 4.19834L11.3076 5.60871L5.6087 11.3076L4.19832 9.89723C3.57322 9.27204 2.56091 9.2718 1.93565 9.89723L0.524551 11.3082C-0.0991982 11.9321 -0.0991982 12.9471 0.524591 13.571L1.16338 14.2098L0.467872 14.9053C-0.155957 15.529 -0.155957 16.5441 0.467872 17.1679L2.83203 19.5321C3.45602 20.156 4.47092 20.1559 5.09471 19.5321L5.79022 18.8366L6.42904 19.4754C7.05283 20.0991 8.06789 20.0992 8.69172 19.4754L10.1027 18.0644C10.728 17.4392 10.7281 16.427 10.1027 15.8016L8.69236 14.3913L14.3913 8.69237L15.8016 10.1027C16.4267 10.7279 17.439 10.7282 18.0643 10.1027L19.4754 8.69173C20.0991 8.0679 20.0992 7.05284 19.4754 6.42905L18.8366 5.79027ZM15.8103 1.37291C15.9351 1.24815 16.1381 1.24815 16.2629 1.37291L18.627 3.73706C18.7517 3.86182 18.7518 4.06486 18.627 4.18962L17.9315 4.88512L15.1148 2.06837L15.8103 1.37291ZM4.18968 18.6271C4.06493 18.7518 3.86189 18.7518 3.73713 18.6271L1.37302 16.2629C1.24826 16.1382 1.24822 15.9351 1.37298 15.8104L2.06848 15.1149L4.88519 17.9316L4.18968 18.6271ZM9.19771 17.1593L7.7867 18.5703C7.66194 18.6951 7.45891 18.695 7.33415 18.5704C6.05305 17.2893 2.73259 13.9688 1.42969 12.6659C1.30494 12.5411 1.30494 12.3381 1.42965 12.2133C2.96127 10.6818 2.88671 10.7086 3.06702 10.7086C3.26746 10.7086 2.83411 10.3431 9.19775 16.7067C9.32251 16.8315 9.32279 17.0342 9.19771 17.1593ZM7.78734 13.4862L6.51376 12.2126L12.2127 6.51373L13.4862 7.78731L7.78734 13.4862ZM18.5703 7.78667C17.0387 9.3182 17.1133 9.2914 16.933 9.2914C16.7503 9.2914 16.8486 9.3396 14.8438 7.3348C10.4895 2.98052 10.7086 3.25639 10.7086 3.067C10.7086 2.88836 10.6766 2.96636 12.2133 1.42967C12.2757 1.36727 12.3576 1.33607 12.4396 1.33607C12.6268 1.33607 12.1068 0.870635 18.5703 7.33408C18.6951 7.45888 18.6951 7.66191 18.5703 7.78667Z" fill="#383E45"/>
</svg>
