<svg width="16" height="20" viewBox="0 0 16 20" fill="none" xmlns="http://www.w3.org/2000/svg">
<path d="M13 7.5V8.75H3V7.5H13ZM10.5 2.5V3.75H3V2.5H10.5ZM8 17.5V11.25H13V17.5H8ZM9.25 12.5V16.25H11.75V12.5H9.25ZM13 5V6.25H3V5H13ZM0.5 2C0.5 0.895431 1.39543 0 2.5 0H13.5C14.6046 0 15.5 0.895431 15.5 2V18C15.5 19.1046 14.6046 20 13.5 20H2.5C1.39543 20 0.5 19.1046 0.5 18V2ZM13.25 18.75C13.8023 18.75 14.25 18.3023 14.25 17.75V2.25C14.25 1.69772 13.8023 1.25 13.25 1.25H2.75C2.19772 1.25 1.75 1.69772 1.75 2.25V17.75C1.75 18.3023 2.19772 18.75 2.75 18.75H13.25ZM6.75 16.25V17.5H3V16.25H6.75ZM6.75 11.25V12.5H3V11.25H6.75ZM6.75 13.75V15H3V13.75H6.75Z" fill="#383E45"/>
</svg>
