<svg width="18" height="20" viewBox="0 0 18 20" fill="none" xmlns="http://www.w3.org/2000/svg">
<path d="M2.6466 15.6757C2.58637 15.9416 2.55469 16.216 2.55469 16.4844C2.55469 18.4229 4.1318 20 6.07031 20C7.29184 20 8.36965 19.3737 9 18.4254C9.63035 19.3737 10.7082 20 11.9297 20C13.8682 20 15.4453 18.4229 15.4453 16.4844C15.4453 16.216 15.4136 15.9416 15.3534 15.6757C16.7813 15.2184 17.7891 13.89 17.7891 12.3438C17.7891 11.4641 17.4656 10.6397 16.8842 10C17.4656 9.36031 17.7891 8.5359 17.7891 7.65625C17.7891 6.11004 16.7813 4.78156 15.3534 4.32426C15.4136 4.05844 15.4453 3.78402 15.4453 3.51562C15.4453 1.57711 13.8682 0 11.9297 0C10.7082 0 9.63035 0.626328 9 1.57457C8.36965 0.626328 7.29184 0 6.07031 0C4.1318 0 2.55469 1.57711 2.55469 3.51562C2.55469 3.78402 2.58637 4.05844 2.6466 4.32426C1.21867 4.78156 0.210938 6.11004 0.210938 7.65625C0.210938 8.5359 0.534414 9.36031 1.11582 10C0.534414 10.6397 0.210938 11.4641 0.210938 12.3438C0.210938 13.89 1.21867 15.2184 2.6466 15.6757ZM14.2695 14.6875H13.1016V15.8594H14.1917C14.2445 16.0637 14.2734 16.2789 14.2734 16.4844C14.2734 17.7767 13.222 18.8281 11.9297 18.8281C10.6373 18.8281 9.58594 17.7767 9.58594 16.4844V14.1016H7.82812C7.50504 14.1016 7.24219 13.8387 7.24219 13.5156C7.24219 13.1925 7.50504 12.9297 7.82812 12.9297H9.58594V10.5859H10.7578V11.1719C10.7578 12.1411 11.5464 12.9297 12.5156 12.9297C13.4849 12.9297 14.2734 12.1411 14.2734 11.1719V10.5859H15.8082C16.3241 11.0334 16.6172 11.6641 16.6172 12.3438C16.6172 14.6462 14.2948 14.6751 14.2695 14.6875ZM11.9297 1.17188C13.222 1.17188 14.2734 2.22328 14.2734 3.51562C14.2734 3.72105 14.2445 3.93629 14.1917 4.14062H13.1016V5.3125H14.2695C14.2734 5.31441 16.6172 5.43387 16.6172 7.65625C16.6172 8.33586 16.3241 8.9666 15.8082 9.41406H13.1016V11.1719C13.1016 11.495 12.8387 11.7578 12.5156 11.7578C12.1925 11.7578 11.9297 11.495 11.9297 11.1719V9.41406H9.58594V8.24219H10.1719C11.1411 8.24219 11.9297 7.45363 11.9297 6.48438C11.9297 5.51512 11.1411 4.72656 10.1719 4.72656H9.58594V3.51562C9.58594 2.22328 10.6373 1.17188 11.9297 1.17188ZM3.73047 5.3125H4.89844V4.14062H3.80832C3.75555 3.93629 3.72656 3.72105 3.72656 3.51562C3.72656 2.22328 4.77797 1.17188 6.07031 1.17188C7.36266 1.17188 8.41406 2.22328 8.41406 3.51562V5.89844H10.1719C10.495 5.89844 10.7578 6.16129 10.7578 6.48438C10.7578 6.80746 10.495 7.07031 10.1719 7.07031H8.41406V9.41406H7.24219V8.82812C7.24219 7.85887 6.45363 7.07031 5.48438 7.07031C4.51512 7.07031 3.72656 7.85887 3.72656 8.82812V9.41406H2.1918C1.67586 8.9666 1.38281 8.33586 1.38281 7.65625C1.38281 5.35383 3.70523 5.32492 3.73047 5.3125ZM2.1918 10.5859H4.89844V8.82812C4.89844 8.50504 5.16129 8.24219 5.48438 8.24219C5.80746 8.24219 6.07031 8.50504 6.07031 8.82812V10.5859H8.41406V11.7578H7.82812C6.85887 11.7578 6.07031 12.5464 6.07031 13.5156C6.07031 14.4849 6.85887 15.2734 7.82812 15.2734H8.41406V16.4844C8.41406 17.7767 7.36266 18.8281 6.07031 18.8281C4.77797 18.8281 3.72656 17.7767 3.72656 16.4844C3.72656 16.2789 3.75555 16.0637 3.80832 15.8594H4.89844V14.6875H3.73047C3.72656 14.6856 1.38281 14.5661 1.38281 12.3438C1.38281 11.6641 1.67586 11.0334 2.1918 10.5859Z" fill="#383E45"/>
</svg>
