<svg width="20" height="19" viewBox="0 0 20 19" fill="none" xmlns="http://www.w3.org/2000/svg">
<path d="M17.207 14.5273C17.6367 14.7357 18.0208 14.9961 18.3594 15.3086C18.6979 15.6211 18.9909 15.9727 19.2383 16.3633C19.4857 16.7539 19.6745 17.1706 19.8047 17.6133C19.9349 18.056 20 18.5182 20 19H18.75C18.75 18.4857 18.6523 18.0007 18.457 17.5449C18.2617 17.0892 17.9915 16.6921 17.6465 16.3535C17.3014 16.015 16.9043 15.748 16.4551 15.5527C16.0059 15.3574 15.5208 15.2565 15 15.25C14.4857 15.25 14.0007 15.3477 13.5449 15.543C13.0892 15.7383 12.6921 16.0085 12.3535 16.3535C12.015 16.6986 11.748 17.0957 11.5527 17.5449C11.3574 17.9941 11.2565 18.4792 11.25 19H10C10 18.5247 10.0651 18.0658 10.1953 17.623C10.3255 17.1803 10.5111 16.7637 10.752 16.373C10.9928 15.9824 11.2858 15.6309 11.6309 15.3184C11.9759 15.0059 12.3633 14.7422 12.793 14.5273C12.3047 14.1758 11.9271 13.7363 11.6602 13.209C11.3932 12.6816 11.2565 12.112 11.25 11.5C11.25 10.9857 11.3477 10.5007 11.543 10.0449C11.7383 9.58919 12.0052 9.19206 12.3438 8.85352C12.6823 8.51497 13.0794 8.24479 13.5352 8.04297C13.9909 7.84115 14.4792 7.74349 15 7.75C15.5143 7.75 15.9993 7.84766 16.4551 8.04297C16.9108 8.23828 17.3079 8.50521 17.6465 8.84375C17.985 9.18229 18.2552 9.58268 18.457 10.0449C18.6589 10.5072 18.7565 10.9922 18.75 11.5C18.75 12.1055 18.6165 12.6719 18.3496 13.1992C18.0827 13.7266 17.7018 14.1693 17.207 14.5273ZM15 14C15.3451 14 15.6673 13.9349 15.9668 13.8047C16.2663 13.6745 16.5332 13.4954 16.7676 13.2676C17.002 13.0397 17.181 12.776 17.3047 12.4766C17.4284 12.1771 17.4935 11.8516 17.5 11.5C17.5 11.1549 17.4349 10.8327 17.3047 10.5332C17.1745 10.2337 16.9954 9.9668 16.7676 9.73242C16.5397 9.49805 16.276 9.31901 15.9766 9.19531C15.6771 9.07161 15.3516 9.00651 15 9C14.6549 9 14.3327 9.0651 14.0332 9.19531C13.7337 9.32552 13.4668 9.50456 13.2324 9.73242C12.998 9.96029 12.819 10.224 12.6953 10.5234C12.5716 10.8229 12.5065 11.1484 12.5 11.5C12.5 11.8451 12.5651 12.1673 12.6953 12.4668C12.8255 12.7663 13.0046 13.0332 13.2324 13.2676C13.4603 13.502 13.724 13.681 14.0234 13.8047C14.3229 13.9284 14.6484 13.9935 15 14ZM20 0.25V10.25C20 9.9375 19.9707 9.66406 19.9121 9.42969C19.8535 9.19531 19.7721 8.97721 19.668 8.77539C19.5638 8.57357 19.4336 8.37825 19.2773 8.18945C19.1211 8.00065 18.9453 7.79557 18.75 7.57422V1.5H1.25V12.75H3.75V15.3574L6.35742 12.75H10.166C10.2181 12.9714 10.2865 13.1862 10.3711 13.3945C10.4557 13.6029 10.5566 13.8047 10.6738 14H6.875L2.5 18.375V14H0V0.25H20Z" fill="#383E45"/>
</svg>
