<svg width="20" height="14" viewBox="0 0 20 14" fill="none" xmlns="http://www.w3.org/2000/svg">
<path d="M1.23695 9.00267C2.09126 4.90861 5.65605 2 9.66311 2C13.6702 2 17.2349 4.9086 18.0893 9.00268C18.1598 9.34058 18.4909 9.55734 18.8288 9.48682C19.1667 9.4163 19.3834 9.08522 19.3129 8.74732C18.3413 4.0914 14.2799 0.75 9.66311 0.75C5.04633 0.75 0.984862 4.09139 0.0133044 8.74733C-0.0572053 9.08523 0.159557 9.41631 0.497457 9.48682C0.835357 9.55733 1.16644 9.34057 1.23695 9.00267Z" fill="#383E45"/>
<path d="M9.66309 4.5C7.24684 4.5 5.28809 6.45875 5.28809 8.875C5.28809 11.2912 7.24684 13.25 9.66309 13.25C12.0793 13.25 14.0381 11.2912 14.0381 8.875C14.0381 6.45875 12.0793 4.5 9.66309 4.5ZM6.53809 8.875C6.53809 7.14911 7.9372 5.75 9.66309 5.75C11.389 5.75 12.7881 7.14911 12.7881 8.875C12.7881 10.6009 11.389 12 9.66309 12C7.9372 12 6.53809 10.6009 6.53809 8.875Z" fill="#383E45"/>
</svg>
