<svg width="18" height="20" viewBox="0 0 18 20" fill="none" xmlns="http://www.w3.org/2000/svg">
<path d="M8.94434 0.625C10.4666 0.625 11.7106 1.88098 11.7946 3.4635L11.7991 3.63426H16.4106C16.7744 3.63426 17.0693 3.94517 17.0693 4.3287C17.0693 4.68027 16.8215 4.97083 16.5 5.01681L16.4106 5.02315H15.7114L14.5869 17.078C14.4704 18.3271 13.5105 19.2917 12.3372 19.3699L12.183 19.375H5.7057C4.51498 19.375 3.51039 18.4625 3.3217 17.2392L3.30176 17.078L2.17644 5.02315H1.47813C1.14461 5.02315 0.868981 4.76189 0.825359 4.42294L0.819345 4.3287C0.819345 3.97713 1.06718 3.68658 1.38874 3.6406L1.47813 3.63426H6.08961C6.08961 1.97229 7.36772 0.625 8.94434 0.625ZM14.3877 5.02315H3.50016L4.613 16.942C4.6646 17.495 5.07977 17.9253 5.59407 17.9802L5.7057 17.9861H12.183C12.7101 17.9861 13.157 17.5927 13.2592 17.0585L13.2757 16.942L14.3877 5.02315ZM8.94434 2.01389C8.13784 2.01389 7.47641 2.66862 7.41228 3.50136L7.40718 3.63426H10.4815C10.4815 2.73935 9.7933 2.01389 8.94434 2.01389Z" fill="#7CAF8A"/>
</svg>
